<?xml version="1.0" encoding="utf-8"?>
<svg xmlns="http://www.w3.org/2000/svg" viewBox="0 0 215.528 460.208" width="215.528px" height="460.208px">
  <g id="Layer_2" transform="matrix(1, 0, 0, 1, 131.06060791015628, -55.303028106689446)"/>
  <g id="Capa_1" transform="matrix(1, 0, 0, 1, 0, 1.4210854715202004e-14)">
    <path style="fill: rgb(236, 239, 241);" d="M 322.072 214.349 L 231.558 214.349 C 231.046 214.349 230.538 214.43 230.052 214.587 L 228.909 214.968 C 226.412 215.799 225.062 218.496 225.892 220.992 C 225.897 221.007 225.903 221.022 225.908 221.037 L 273.794 360.972 L 242.257 397.006 C 240.526 398.987 240.728 401.997 242.71 403.728 C 243.579 404.488 244.694 404.906 245.849 404.905 L 322.071 404.905 C 335.227 404.905 345.891 394.241 345.891 381.086 L 345.891 238.169 C 345.891 225.014 335.227 214.349 322.072 214.349 Z"/>
    <g transform="matrix(0.446615, 0, 0, 0.446615, 115.212074, 176.237747)" style="">
      <path style="fill:#455A64;" d="M458.667,234.667H309.333c-5.891,0-10.667-4.776-10.667-10.667c0-5.891,4.776-10.667,10.667-10.667 h149.333c5.891,0,10.667,4.776,10.667,10.667C469.333,229.891,464.558,234.667,458.667,234.667z"/>
      <path style="fill:#455A64;" d="M373.333,234.667c-5.891,0-10.667-4.776-10.667-10.667v-21.333c0-5.891,4.776-10.667,10.667-10.667 S384,196.776,384,202.667V224C384,229.891,379.224,234.667,373.333,234.667z"/>
      <path style="fill:#455A64;" d="M341.333,362.667c-5.891-0.005-10.663-4.785-10.657-10.676c0.003-3.443,1.668-6.673,4.471-8.673 C381.867,310.123,416,242.453,416,224c0-5.891,4.776-10.667,10.667-10.667c5.891,0,10.667,4.776,10.667,10.667 c0,28.117-41.109,102.101-89.813,136.683C345.714,361.971,343.552,362.665,341.333,362.667z"/>
      <path style="fill:#455A64;" d="M426.667,384c-2.669,0.003-5.241-0.994-7.211-2.795c-7.723-7.083-75.904-70.059-88-99.861 c-2.221-5.461,0.406-11.688,5.867-13.909s11.688,0.406,13.909,5.867c8.725,21.504,62.635,73.813,82.667,92.139 c4.359,3.962,4.681,10.708,0.719,15.068C432.583,382.747,429.692,384.016,426.667,384z"/>
    </g>
    <path style="fill: rgb(33, 150, 243);" d="M 296.842 398.598 L 234.912 217.57 C 234.252 215.644 232.441 214.349 230.405 214.349 L 154.183 214.349 C 141.028 214.349 130.363 225.014 130.363 238.169 L 130.363 381.085 C 130.363 394.24 141.028 404.905 154.183 404.905 L 292.335 404.905 C 294.966 404.905 297.099 402.772 297.099 400.141 C 297.099 399.616 297.012 399.094 296.842 398.598 Z"/>
    <g transform="matrix(0.446615, 0, 0, 0.446615, 130.363586, 214.348633)" style="">
      <path style="fill:#FAFAFA;" d="M202.667,298.667c-4.51,0.001-8.533-2.835-10.048-7.083l-43.285-121.216l-43.285,121.216 c-2.203,5.464-8.418,8.107-13.882,5.904c-5.155-2.078-7.85-7.767-6.193-13.072l53.333-149.333 c2.609-5.543,9.218-7.922,14.761-5.314c2.335,1.099,4.214,2.978,5.314,5.314l53.333,149.333c1.986,5.531-0.876,11.627-6.4,13.632 C205.143,298.463,203.909,298.672,202.667,298.667z"/>
      <path style="fill:#FAFAFA;" d="M170.667,234.667H128c-5.891,0-10.667-4.776-10.667-10.667c0-5.891,4.776-10.667,10.667-10.667 h42.667c5.891,0,10.667,4.776,10.667,10.667C181.333,229.891,176.558,234.667,170.667,234.667z"/>
    </g>
    <g transform="matrix(0.446615, 0, 0, 0.446615, 130.363586, 214.348633)" style=""/>
    <g transform="matrix(0.446615, 0, 0, 0.446615, 130.363586, 214.348633)" style=""/>
    <g transform="matrix(0.446615, 0, 0, 0.446615, 130.363586, 214.348633)" style=""/>
    <g transform="matrix(0.446615, 0, 0, 0.446615, 130.363586, 214.348633)" style=""/>
    <g transform="matrix(0.446615, 0, 0, 0.446615, 130.363586, 214.348633)" style=""/>
    <g transform="matrix(0.446615, 0, 0, 0.446615, 130.363586, 214.348633)" style=""/>
    <g transform="matrix(0.446615, 0, 0, 0.446615, 130.363586, 214.348633)" style=""/>
    <g transform="matrix(0.446615, 0, 0, 0.446615, 130.363586, 214.348633)" style=""/>
    <g transform="matrix(0.446615, 0, 0, 0.446615, 130.363586, 214.348633)" style=""/>
    <g transform="matrix(0.446615, 0, 0, 0.446615, 130.363586, 214.348633)" style=""/>
    <g transform="matrix(0.446615, 0, 0, 0.446615, 130.363586, 214.348633)" style=""/>
    <g transform="matrix(0.446615, 0, 0, 0.446615, 130.363586, 214.348633)" style=""/>
    <g transform="matrix(0.446615, 0, 0, 0.446615, 130.363586, 214.348633)" style=""/>
    <g transform="matrix(0.446615, 0, 0, 0.446615, 130.363586, 214.348633)" style=""/>
    <g transform="matrix(0.446615, 0, 0, 0.446615, 130.363586, 214.348633)" style=""/>
  </g>
  <path d="M 215.466 159.164 L 261.458 159.164 L 261.458 214.759 L 215.466 214.759 L 215.466 159.164 Z" style="fill: rgb(97, 178, 242);" transform="matrix(1, 0, 0, 1, 0, 1.4210854715202004e-14)"/>
  <path d="M 215.466 159.164 L 215.466 164.795 L 242.686 164.795 C 248.906 164.795 253.949 169.838 253.949 176.059 L 253.949 214.759 L 261.458 214.759 L 261.458 159.164 L 215.466 159.164 Z" style="fill: rgb(33, 150, 243);" transform="matrix(1, 0, 0, 1, 0, 1.4210854715202004e-14)"/>
  <rect height="26.282" rx="4" width="158.629" x="159.147" y="132.882" style="fill: rgb(33, 150, 243);" transform="matrix(1, 0, 0, 1, 0, 1.4210854715202004e-14)"/>
  <path d="M 310.267 132.882 L 166.656 132.882 C 162.51 132.882 159.147 136.244 159.147 140.391 L 302.758 140.391 C 306.905 140.391 310.267 143.753 310.267 147.9 L 310.267 159.164 C 314.414 159.164 317.776 155.802 317.776 151.654 L 317.776 140.391 C 317.776 136.244 314.414 132.882 310.267 132.882 Z" style="fill: rgb(25, 118, 210);" transform="matrix(1, 0, 0, 1, 0, 1.4210854715202004e-14)"/>
  <path d="M 168.768 198.82 L 195.754 198.82 L 195.754 214.759 L 168.768 214.759 L 168.768 198.82 Z" style="fill: rgb(216, 216, 216);" transform="matrix(1, 0, 0, 1, 0, 1.4210854715202004e-14)"/>
  <path d="M 281.168 198.82 L 308.154 198.82 L 308.154 214.759 L 281.168 214.759 L 281.168 198.82 Z" style="fill: rgb(216, 216, 216); transform-origin: 294.661px 206.79px;" transform="matrix(-1, 0, 0, -1, 0, -0.000030517578)"/>
  <path d="M 281.169 198.82 L 281.169 202.575 L 295.062 202.575 C 299.186 202.575 302.527 205.917 302.527 210.042 L 302.527 214.755 L 308.159 214.755 L 308.159 198.817 L 281.169 198.82 Z" style="fill: rgb(69, 90, 100);" transform="matrix(1, 0, 0, 1, 0, 1.4210854715202004e-14)"/>
  <path d="M 168.768 198.82 L 168.768 202.575 L 182.66 202.575 C 186.784 202.575 190.126 205.917 190.126 210.042 L 190.126 214.755 L 195.758 214.755 L 195.758 198.817 L 168.768 198.82 Z" style="fill: rgb(69, 90, 100);" transform="matrix(1, 0, 0, 1, 0, 1.4210854715202004e-14)"/>
</svg>